<svg width="94" height="20" viewBox="0 0 94 20" fill="none" xmlns="http://www.w3.org/2000/svg">
<path d="M14.274 11.2651L10.6294 9.33735C9.96674 10.5422 8.85228 11.3253 7.22578 11.3253C5.41855 11.3253 4.15349 9.75904 4.24385 7.89157C4.36433 5.66265 5.90048 4.06627 8.27999 4.06627C9.45469 4.06627 10.6896 4.57831 11.021 5.66265L15.0571 4.39759C14.5149 1.77711 11.8041 0 8.52096 0C4.06313 0 0.448668 3.28313 0.0571015 7.5C-0.454947 12.0482 2.52698 15.3916 6.98481 15.3916C10.2378 15.3916 13.1294 13.7651 14.274 11.2651Z" fill="url(#paint0_linear_666_4580)"/>
<path d="M23.6125 0C18.8535 0 14.9679 4.00602 14.9679 8.73494C14.9679 12.5904 17.7992 15.3916 21.8655 15.3916C26.5944 15.3916 30.5101 11.3855 30.5101 6.71687C30.5101 2.83133 27.6788 0 23.6125 0ZM23.2812 4.06627C24.998 4.06627 26.2932 5.42169 26.2932 7.19879C26.2932 9.45783 24.4257 11.3253 22.1968 11.3253C20.4498 11.3253 19.1848 9.96988 19.1848 8.25301C19.1848 5.96386 21.0221 4.06627 23.2812 4.06627Z" fill="url(#paint1_linear_666_4580)"/>
<path d="M41.2718 0C39.7658 0 38.1091 0.66265 37.0549 1.89759L37.3561 0.301206H33.1092L29.2537 20H33.5308L34.826 13.3735C35.6995 14.7289 37.2959 15.3916 39.0128 15.3916C43.5911 15.3916 47.1754 11.4458 47.1754 6.44578C47.1754 2.74096 44.6754 0 41.2718 0ZM38.3802 11.3855C37.1453 11.3855 36.0308 10.8735 35.4887 9.93976L36.3019 5.66265C37.1152 4.69879 38.4706 4.00602 39.7658 4.00602C41.6634 4.00602 42.8079 5.24096 42.8079 7.10843C42.8079 9.51807 40.9405 11.3855 38.3802 11.3855Z" fill="url(#paint2_linear_666_4580)"/>
<path d="M57.9216 0C56.4156 0 54.759 0.66265 53.7047 1.89759L54.0059 0.301206H49.759L45.9035 20H50.1806L51.4758 13.3735C52.3493 14.7289 53.9457 15.3916 55.6626 15.3916C60.2409 15.3916 63.8252 11.4458 63.8252 6.44578C63.8252 2.74096 61.3252 0 57.9216 0ZM55.03 11.3855C53.7951 11.3855 52.6806 10.8735 52.1385 9.93976L52.9517 5.66265C53.765 4.69879 55.1204 4.00602 56.4156 4.00602C58.3132 4.00602 59.4577 5.24096 59.4577 7.10843C59.4577 9.51807 57.5903 11.3855 55.03 11.3855Z" fill="url(#paint3_linear_666_4580)"/>
<path d="M79.2716 6.20482C79.2716 2.6506 76.5909 0 72.615 0C68.1873 0 64.2415 3.94578 64.2415 8.64458C64.2415 12.5301 67.1029 15.3916 71.1692 15.3916C74.0909 15.3916 76.6813 14.3675 78.0367 12.4096L74.9041 10.1506C74.3017 11.1446 72.9463 11.7771 71.5005 11.7771C69.6632 11.7771 68.5487 10.5422 68.368 8.76506H78.8198C79.0608 8.07229 79.2716 6.98795 79.2716 6.20482ZM68.7596 5.90362C69.3319 4.42771 70.5668 3.43373 72.374 3.43373C74.0608 3.43373 75.1451 4.30723 75.2054 5.90362H68.7596Z" fill="url(#paint4_linear_666_4580)"/>
<path d="M89.2657 0C88.2115 0 86.6151 0.632532 85.6513 1.80723L85.9525 0.301206H81.7055L78.8139 15.0904H83.0609L84.838 5.96386L84.7778 6.38554C85.7416 4.8494 87.6091 3.91566 88.7537 3.91566C89.2356 3.91566 89.9284 4.00602 90.4103 4.18675L91.1633 0.301206C90.7416 0.150603 90.1693 0 89.2657 0Z" fill="url(#paint5_linear_666_4580)"/>
<path d="M90.7468 15.3916C92.283 15.3916 93.4878 14.1867 93.4878 12.6807C93.4878 11.1747 92.283 10 90.7468 10C89.1805 10 88.0058 11.1747 88.0058 12.6807C88.0058 14.1867 89.1805 15.3916 90.7468 15.3916Z" fill="url(#paint6_linear_666_4580)"/>
<defs>
<linearGradient id="paint0_linear_666_4580" x1="-4.80476" y1="-1.64485" x2="65.6897" y2="26.8261" gradientUnits="userSpaceOnUse">
<stop stop-color="#53B0EE"/>
<stop offset="0.464264" stop-color="#644ACC"/>
<stop offset="0.704085" stop-color="#9250A6"/>
<stop offset="1" stop-color="#E15967"/>
</linearGradient>
<linearGradient id="paint1_linear_666_4580" x1="-4.80476" y1="-1.64485" x2="65.6897" y2="26.8261" gradientUnits="userSpaceOnUse">
<stop stop-color="#53B0EE"/>
<stop offset="0.464264" stop-color="#644ACC"/>
<stop offset="0.704085" stop-color="#9250A6"/>
<stop offset="1" stop-color="#E15967"/>
</linearGradient>
<linearGradient id="paint2_linear_666_4580" x1="-4.80476" y1="-1.64485" x2="65.6897" y2="26.8261" gradientUnits="userSpaceOnUse">
<stop stop-color="#53B0EE"/>
<stop offset="0.464264" stop-color="#644ACC"/>
<stop offset="0.704085" stop-color="#9250A6"/>
<stop offset="1" stop-color="#E15967"/>
</linearGradient>
<linearGradient id="paint3_linear_666_4580" x1="-4.80476" y1="-1.64485" x2="65.6897" y2="26.8261" gradientUnits="userSpaceOnUse">
<stop stop-color="#53B0EE"/>
<stop offset="0.464264" stop-color="#644ACC"/>
<stop offset="0.704085" stop-color="#9250A6"/>
<stop offset="1" stop-color="#E15967"/>
</linearGradient>
<linearGradient id="paint4_linear_666_4580" x1="-4.80476" y1="-1.64485" x2="65.6897" y2="26.8261" gradientUnits="userSpaceOnUse">
<stop stop-color="#53B0EE"/>
<stop offset="0.464264" stop-color="#644ACC"/>
<stop offset="0.704085" stop-color="#9250A6"/>
<stop offset="1" stop-color="#E15967"/>
</linearGradient>
<linearGradient id="paint5_linear_666_4580" x1="-4.80476" y1="-1.64485" x2="65.6897" y2="26.8261" gradientUnits="userSpaceOnUse">
<stop stop-color="#53B0EE"/>
<stop offset="0.464264" stop-color="#644ACC"/>
<stop offset="0.704085" stop-color="#9250A6"/>
<stop offset="1" stop-color="#E15967"/>
</linearGradient>
<linearGradient id="paint6_linear_666_4580" x1="-4.80476" y1="-1.64485" x2="65.6897" y2="26.8261" gradientUnits="userSpaceOnUse">
<stop stop-color="#53B0EE"/>
<stop offset="0.464264" stop-color="#644ACC"/>
<stop offset="0.704085" stop-color="#9250A6"/>
<stop offset="1" stop-color="#E15967"/>
</linearGradient>
</defs>
</svg>
