<svg width="400" height="400" viewBox="0 0 400 400" fill="none" xmlns="http://www.w3.org/2000/svg">
<rect width="400" height="400" fill="white"/>
<path d="M123.524 172.19L103.357 210.989V230.142H89.1342L89.1665 210.989L69 172.19H85.0993L96.3857 196.46L107.589 172.19H123.524Z" fill="url(#paint0_linear_38_58)"/>
<path d="M121.295 194.564C123.093 190.987 125.54 188.237 128.638 186.309C131.736 184.384 135.195 183.42 139.012 183.42C142.274 183.42 145.138 184.082 147.601 185.402C150.062 186.722 151.959 188.457 153.286 190.602V184.079H167.477V230.144H153.286V223.622C151.903 225.769 149.981 227.502 147.518 228.822C145.055 230.142 142.194 230.803 138.929 230.803C135.166 230.803 131.736 229.826 128.638 227.871C125.54 225.919 123.09 223.137 121.295 219.533C119.497 215.929 118.598 211.76 118.598 207.026C118.598 202.292 119.497 198.139 121.295 194.559V194.564ZM150.342 198.774C148.377 196.739 145.984 195.718 143.163 195.718C140.342 195.718 137.946 196.723 135.984 198.731C134.019 200.742 133.039 203.505 133.039 207.029C133.039 210.552 134.022 213.345 135.984 215.407C137.946 217.471 140.342 218.502 143.163 218.502C145.984 218.502 148.377 217.485 150.342 215.447C152.304 213.412 153.286 210.633 153.286 207.109C153.286 203.585 152.304 200.809 150.342 198.771V198.774Z" fill="url(#paint1_linear_38_58)"/>
<path d="M198.596 216.936L208.639 184.079H223.743L207.31 230.144H189.8L173.367 184.079H188.554L198.596 216.936Z" fill="url(#paint2_linear_38_58)"/>
<path d="M229.592 194.564C231.39 190.987 233.836 188.237 236.937 186.309C240.035 184.384 243.494 183.42 247.311 183.42C250.574 183.42 253.438 184.082 255.901 185.402C258.361 186.722 260.258 188.457 261.586 190.602V184.079H275.776V230.144H261.586V223.622C260.202 225.769 258.28 227.502 255.817 228.822C253.354 230.142 250.493 230.803 247.228 230.803C243.465 230.803 240.035 229.826 236.937 227.871C233.839 225.919 231.39 223.137 229.592 219.533C227.793 215.929 226.894 211.76 226.894 207.026C226.894 202.292 227.793 198.139 229.592 194.559V194.564ZM258.638 198.774C256.673 196.739 254.28 195.718 251.459 195.718C248.638 195.718 246.243 196.723 244.28 198.731C242.315 200.742 241.333 203.505 241.333 207.029C241.333 210.552 242.315 213.345 244.28 215.407C246.243 217.471 248.638 218.502 251.459 218.502C254.28 218.502 256.673 217.485 258.638 215.447C260.6 213.412 261.586 210.633 261.586 207.109C261.586 203.585 260.603 200.809 258.638 198.771V198.774Z" fill="url(#paint3_linear_38_58)"/>
<path d="M306.481 185.771C308.971 184.314 311.738 183.583 314.78 183.583V198.525H310.88C307.337 198.525 304.683 199.282 302.912 200.795C301.141 202.311 300.255 204.964 300.255 208.761V230.142H286.064V184.079H300.255V191.756C301.916 189.225 303.989 187.23 306.479 185.771H306.481Z" fill="url(#paint4_linear_38_58)"/>
<path d="M312.804 170L309.499 172.961L327.137 175.195L327.679 192.749L330.836 189.921L331.019 171.722L312.804 170Z" fill="url(#paint5_linear_38_58)"/>
<path d="M308.053 174.255L303.063 178.724L321.324 180.408L321.095 198.645L326.241 194.037L325.703 176.491L308.053 174.255Z" fill="url(#paint6_linear_38_58)"/>
<path d="M327.679 192.749V192.752L326.241 194.04V194.037L327.679 192.749Z" fill="white"/>
<defs>
<linearGradient id="paint0_linear_38_58" x1="67.8775" y1="192.995" x2="321.478" y2="247.462" gradientUnits="userSpaceOnUse">
<stop stop-color="#55008D"/>
<stop offset="0.6" stop-color="#FF005C"/>
<stop offset="1" stop-color="#FFA415"/>
</linearGradient>
<linearGradient id="paint1_linear_38_58" x1="61.0969" y1="188.095" x2="314.698" y2="242.562" gradientUnits="userSpaceOnUse">
<stop stop-color="#55008D"/>
<stop offset="0.6" stop-color="#FF005C"/>
<stop offset="1" stop-color="#FFA415"/>
</linearGradient>
<linearGradient id="paint2_linear_38_58" x1="63.552" y1="176.673" x2="317.153" y2="231.14" gradientUnits="userSpaceOnUse">
<stop stop-color="#55008D"/>
<stop offset="0.6" stop-color="#FF005C"/>
<stop offset="1" stop-color="#FFA415"/>
</linearGradient>
<linearGradient id="paint3_linear_38_58" x1="65.8262" y1="166.085" x2="319.427" y2="220.552" gradientUnits="userSpaceOnUse">
<stop stop-color="#55008D"/>
<stop offset="0.6" stop-color="#FF005C"/>
<stop offset="1" stop-color="#FFA415"/>
</linearGradient>
<linearGradient id="paint4_linear_38_58" x1="67.689" y1="157.402" x2="321.293" y2="211.869" gradientUnits="userSpaceOnUse">
<stop stop-color="#55008D"/>
<stop offset="0.6" stop-color="#FF005C"/>
<stop offset="1" stop-color="#FFA415"/>
</linearGradient>
<linearGradient id="paint5_linear_38_58" x1="276.081" y1="210.609" x2="328.236" y2="175.718" gradientUnits="userSpaceOnUse">
<stop stop-color="#55008D"/>
<stop offset="0.6" stop-color="#FF005C"/>
<stop offset="1" stop-color="#FFA415"/>
</linearGradient>
<linearGradient id="paint6_linear_38_58" x1="276.665" y1="211.546" x2="328.82" y2="176.655" gradientUnits="userSpaceOnUse">
<stop stop-color="#55008D"/>
<stop offset="0.6" stop-color="#FF005C"/>
<stop offset="1" stop-color="#FFA415"/>
</linearGradient>
</defs>
</svg>
