<svg width="974" height="290" viewBox="0 0 974 290" fill="none" xmlns="http://www.w3.org/2000/svg">
<path d="M202.56 8.17999L127.64 153.08V224.61H74.8L74.92 153.08L0 8.17999H59.81L101.74 98.82L143.36 8.17999H202.56Z" fill="white"/>
<path d="M194.28 91.74C200.96 78.38 210.05 68.11 221.56 60.91C233.07 53.72 245.92 50.12 260.1 50.12C272.22 50.12 282.86 52.59 292.01 57.52C301.15 62.45 308.2 68.93 313.13 76.94V52.58H365.85V224.62H313.13V200.26C307.99 208.28 300.85 214.75 291.7 219.68C282.55 224.61 271.92 227.08 259.79 227.08C245.81 227.08 233.07 223.43 221.56 216.13C210.05 208.84 200.95 198.45 194.28 184.99C187.6 171.53 184.26 155.96 184.26 138.28C184.26 120.6 187.6 105.09 194.28 91.72V91.74ZM302.19 107.46C294.89 99.86 286 96.05 275.52 96.05C265.04 96.05 256.14 99.8 248.85 107.3C241.55 114.81 237.91 125.13 237.91 138.29C237.91 151.45 241.56 161.88 248.85 169.58C256.14 177.29 265.04 181.14 275.52 181.14C286 181.14 294.89 177.34 302.19 169.73C309.48 162.13 313.13 151.75 313.13 138.59C313.13 125.43 309.48 115.06 302.19 107.45V107.46Z" fill="white"/>
<path d="M481.46 175.29L518.77 52.58H574.88L513.83 224.62H448.78L387.73 52.58H444.15L481.46 175.29Z" fill="white"/>
<path d="M596.61 91.74C603.29 78.38 612.38 68.11 623.9 60.91C635.41 53.72 648.26 50.12 662.44 50.12C674.56 50.12 685.2 52.59 694.35 57.52C703.49 62.45 710.54 68.93 715.47 76.94V52.58H768.19V224.62H715.47V200.26C710.33 208.28 703.19 214.75 694.04 219.68C684.89 224.61 674.26 227.08 662.13 227.08C648.15 227.08 635.41 223.43 623.9 216.13C612.39 208.84 603.29 198.45 596.61 184.99C589.93 171.53 586.59 155.96 586.59 138.28C586.59 120.6 589.93 105.09 596.61 91.72V91.74ZM704.52 107.46C697.22 99.86 688.33 96.05 677.85 96.05C667.37 96.05 658.47 99.8 651.18 107.3C643.88 114.81 640.23 125.13 640.23 138.29C640.23 151.45 643.88 161.88 651.18 169.58C658.47 177.29 667.37 181.14 677.85 181.14C688.33 181.14 697.22 177.34 704.52 169.73C711.81 162.13 715.47 151.75 715.47 138.59C715.47 125.43 711.82 115.06 704.52 107.45V107.46Z" fill="white"/>
<path d="M882.26 58.9C891.51 53.46 901.79 50.73 913.09 50.73V106.53H898.6C885.44 106.53 875.58 109.36 869 115.01C862.42 120.67 859.13 130.58 859.13 144.76V224.61H806.41V52.58H859.13V81.25C865.3 71.8 873 64.35 882.25 58.9H882.26Z" fill="white"/>
<path d="M905.75 0L893.47 11.06L959 19.4L961.01 84.96L972.74 74.4L973.42 6.43L905.75 0Z" fill="white"/>
<path d="M888.1 15.89L869.56 32.58L937.4 38.87L936.55 106.98L955.67 89.77L953.67 24.24L888.1 15.89Z" fill="white"/>
<path d="M961.01 84.96V84.97L955.67 89.78V89.77L961.01 84.96Z" fill="white"/>
</svg>
