<svg width="974" height="290" viewBox="0 0 974 290" fill="none" xmlns="http://www.w3.org/2000/svg">
<path d="M202.56 8.18018L127.64 153.08V224.61H74.8L74.92 153.08L0 8.18018H59.81L101.74 98.8202L143.36 8.18018H202.56Z" fill="url(#paint0_linear_34_3)"/>
<path d="M194.28 91.7401C200.96 78.3801 210.05 68.1101 221.56 60.9101C233.07 53.7201 245.92 50.1201 260.1 50.1201C272.22 50.1201 282.86 52.5901 292.01 57.5201C301.15 62.4501 308.2 68.9301 313.13 76.9401V52.5801H365.85V224.62H313.13V200.26C307.99 208.28 300.85 214.75 291.7 219.68C282.55 224.61 271.92 227.08 259.79 227.08C245.81 227.08 233.07 223.43 221.56 216.13C210.05 208.84 200.95 198.45 194.28 184.99C187.6 171.53 184.26 155.96 184.26 138.28C184.26 120.6 187.6 105.09 194.28 91.7201V91.7401ZM302.19 107.46C294.89 99.8601 286 96.0501 275.52 96.0501C265.04 96.0501 256.14 99.8001 248.85 107.3C241.55 114.81 237.91 125.13 237.91 138.29C237.91 151.45 241.56 161.88 248.85 169.58C256.14 177.29 265.04 181.14 275.52 181.14C286 181.14 294.89 177.34 302.19 169.73C309.48 162.13 313.13 151.75 313.13 138.59C313.13 125.43 309.48 115.06 302.19 107.45V107.46Z" fill="url(#paint1_linear_34_3)"/>
<path d="M481.46 175.29L518.77 52.5801H574.88L513.83 224.62H448.78L387.73 52.5801H444.15L481.46 175.29Z" fill="url(#paint2_linear_34_3)"/>
<path d="M596.61 91.7401C603.29 78.3801 612.38 68.1101 623.9 60.9101C635.41 53.7201 648.26 50.1201 662.44 50.1201C674.56 50.1201 685.2 52.5901 694.35 57.5201C703.49 62.4501 710.54 68.9301 715.47 76.9401V52.5801H768.19V224.62H715.47V200.26C710.33 208.28 703.19 214.75 694.04 219.68C684.89 224.61 674.26 227.08 662.13 227.08C648.15 227.08 635.41 223.43 623.9 216.13C612.39 208.84 603.29 198.45 596.61 184.99C589.93 171.53 586.59 155.96 586.59 138.28C586.59 120.6 589.93 105.09 596.61 91.7201V91.7401ZM704.52 107.46C697.22 99.8601 688.33 96.0501 677.85 96.0501C667.37 96.0501 658.47 99.8001 651.18 107.3C643.88 114.81 640.23 125.13 640.23 138.29C640.23 151.45 643.88 161.88 651.18 169.58C658.47 177.29 667.37 181.14 677.85 181.14C688.33 181.14 697.22 177.34 704.52 169.73C711.81 162.13 715.47 151.75 715.47 138.59C715.47 125.43 711.82 115.06 704.52 107.45V107.46Z" fill="url(#paint3_linear_34_3)"/>
<path d="M882.26 58.9C891.51 53.46 901.79 50.73 913.09 50.73V106.53H898.6C885.44 106.53 875.58 109.36 869 115.01C862.42 120.67 859.13 130.58 859.13 144.76V224.61H806.41V52.58H859.13V81.25C865.3 71.8 873 64.35 882.25 58.9H882.26Z" fill="url(#paint4_linear_34_3)"/>
<path d="M905.75 0L893.47 11.06L959 19.4L961.01 84.96L972.74 74.4L973.42 6.43L905.75 0Z" fill="url(#paint5_linear_34_3)"/>
<path d="M888.1 15.8901L869.56 32.5801L937.4 38.8701L936.55 106.98L955.67 89.7701L953.67 24.2401L888.1 15.8901Z" fill="url(#paint6_linear_34_3)"/>
<path d="M961.01 84.96V84.97L955.67 89.78V89.77L961.01 84.96Z" fill="white"/>
<defs>
<linearGradient id="paint0_linear_34_3" x1="-4.17" y1="85.8802" x2="938.41" y2="287.26" gradientUnits="userSpaceOnUse">
<stop stop-color="#55008D"/>
<stop offset="0.6" stop-color="#FF005C"/>
<stop offset="1" stop-color="#FFA415"/>
</linearGradient>
<linearGradient id="paint1_linear_34_3" x1="-29.3603" y1="67.5801" x2="913.22" y2="268.96" gradientUnits="userSpaceOnUse">
<stop stop-color="#55008D"/>
<stop offset="0.6" stop-color="#FF005C"/>
<stop offset="1" stop-color="#FFA415"/>
</linearGradient>
<linearGradient id="paint2_linear_34_3" x1="-20.24" y1="24.9201" x2="922.34" y2="226.3" gradientUnits="userSpaceOnUse">
<stop stop-color="#55008D"/>
<stop offset="0.6" stop-color="#FF005C"/>
<stop offset="1" stop-color="#FFA415"/>
</linearGradient>
<linearGradient id="paint3_linear_34_3" x1="-11.7899" y1="-14.6199" x2="930.79" y2="186.76" gradientUnits="userSpaceOnUse">
<stop stop-color="#55008D"/>
<stop offset="0.6" stop-color="#FF005C"/>
<stop offset="1" stop-color="#FFA415"/>
</linearGradient>
<linearGradient id="paint4_linear_34_3" x1="-4.87072" y1="-47.05" x2="937.72" y2="154.33" gradientUnits="userSpaceOnUse">
<stop stop-color="#55008D"/>
<stop offset="0.6" stop-color="#FF005C"/>
<stop offset="1" stop-color="#FFA415"/>
</linearGradient>
<linearGradient id="paint5_linear_34_3" x1="769.32" y1="151.66" x2="963.71" y2="22.3" gradientUnits="userSpaceOnUse">
<stop stop-color="#55008D"/>
<stop offset="0.6" stop-color="#FF005C"/>
<stop offset="1" stop-color="#FFA415"/>
</linearGradient>
<linearGradient id="paint6_linear_34_3" x1="771.49" y1="155.16" x2="965.88" y2="25.8002" gradientUnits="userSpaceOnUse">
<stop stop-color="#55008D"/>
<stop offset="0.6" stop-color="#FF005C"/>
<stop offset="1" stop-color="#FFA415"/>
</linearGradient>
</defs>
</svg>
